<?xml version="1.0" encoding="UTF-8"?>
<svg xmlns="http://www.w3.org/2000/svg" viewBox="0 6 400 214" style="display: block; overflow: visible;"><path fill="#000" d="M.424 6.138c-.36.432-1.561-.229 11.142 6.137 6.185 3.101 12.229 6.156 13.429 6.79 1.2.633 2.311 1.102 2.468 1.042.232-.089 1.695.851 2.12 1.361.112.135 3.743 2.282 3.859 2.282.098 0 7.311 4.518 8.397 5.26.567.387 1.078.582 1.378.525.355-.068.456-.007.396.239-.054.223.545.765 1.852 1.674 1.744 1.215 8.239 6.145 8.493 6.449.058.068.62.544 1.25 1.057 1.639 1.333 4.502 3.979 7.581 7.003C68.06 51.137 74.108 59.827 76.04 65c.15.401.402 1.057.561 1.458.158.401.429 1.151.601 1.667.173.516.468 1.216.658 1.557.189.341.323.929.298 1.307-.042.615.204 1.915.522 2.761 1.218 3.242-.558 14.375-3.103 19.454-.617 1.232-.372 1.354 3.186 1.592 8.45.566 16.198 1.448 20.091 2.288.459.098 1.443.286 2.188.417a46 46 0 0 1 2.677.572c1.025.258 1.411.279 1.709.093.255-.159.43-.169.516-.03.166.269 1.541.884 3.014 1.35.631.2 1.334.434 1.563.52s.885.316 1.458.509 1.229.426 1.459.519c.229.092 1.072.428 1.875.746 2.078.825 5.502 2.532 7.843 3.911 1.106.651 2.17 1.184 2.364 1.184s.396.166.449.369.438.601.857.885c2.328 1.583 6.575 5.59 8.495 8.017.454.573.872 1.088.929 1.146s.499.68.982 1.385c.787 1.149 1.138 1.736 2.348 3.927.935 1.692 2.198 5.22 2.685 7.5.28 1.31.901 5.139.878 5.417-.009.114-.113.911-.23 1.771-.275 2.016-.303 2.679-.12 2.862.245.245 4.53.654 5 .478.289-.109.697-.033 1.209.227.425.215.952.391 1.172.391.347 0 2.346.482 4.305 1.038 5.459 1.549 11.726 4.903 17.468 9.348 3.771 2.919 9.215 8.189 12.547 12.146.902 1.071 1.693 1.994 1.758 2.051 1.031.912 7.379 9.483 11.213 15.142 5.515 8.14 5.129 7.759 6.924 6.83.49-.253.64-.264.721-.052.073.192.5.247 1.506.196 13.097-.674 24.128 6.097 30.244 18.566 1.412 2.878 3.552 4.184 6.89 4.206l1.354.008-.043-.605c-.074-1.027-.955-1.722-2.531-1.997-2.14-.372-3.328-1.306-3.67-2.881-.4-1.849 1.332-2.019 2.999-.294 1.285 1.328 1.971 1.715 3.046 1.715.731 0 1.798.858 6.241 5.018 2.937 2.75 4.376 3.99 4.829 4.163.266.101.483.308.483.46 0 .305 2.608 2.714 3.055 2.822.432.104.334-.48-.346-2.08-.344-.808-.625-1.608-.625-1.779s-.167-.354-.37-.407c-.278-.072-.372-.314-.38-.97-.005-.48-.31-2.045-.678-3.477-1.236-4.819-1.271-5.077-.718-5.386.271-.152.557-.033 1.214.506 1.723 1.411 5.395 2.589 6.046 1.938.501-.501.174-.924-1.539-1.989-5.094-3.168-5.785-6.854-.837-4.461 3.02 1.461 3.103 1.438 1.994-.536-1.44-2.564-2.312-4.814-3.036-7.836-.895-3.734.027-10.041 2.133-14.595.415-.897.754-1.814.754-2.038s.129-.457.286-.518c.157-.06.759-.83 1.339-1.712 4.694-7.139 13.349-12.714 23.896-15.391 3.149-.799 8.805-1.515 12.019-1.521 1.812-.004 1.814-.012.533-2.536-2.071-4.081-3.224-8.668-3.803-15.129-.284-3.162-.292-9.511-.013-9.79.065-.065.118-.349.118-.631s.087-.853.193-1.268c.106-.414.347-1.55.535-2.524.187-.974.422-2.052.521-2.396.665-2.306.94-3.149 1.085-3.323.092-.109.166-.395.166-.635 0-.241.078-.527.174-.636s.345-.661.553-1.227c2.432-6.598 7.666-13.654 14.696-19.812 2.45-2.146 7.728-5.564 10.827-7.011 2.556-1.194 5.462-2.373 6.823-2.769.258-.074.469-.249.469-.388 0-.156.337-.255.885-.261.487-.004 2.011-.295 3.386-.646s3.156-.749 3.958-.885c2.59-.439 2.604-.444 2.604-.822 0-.198-.178-.73-.394-1.181-6.597-13.719 1.715-32.914 19.14-44.201.668-.433 1.261-.95 1.318-1.151.058-.2.262-.364.453-.364s1.02-.393 1.842-.874c2.662-1.554 4.334-2.434 8.683-4.567 2.349-1.152 4.458-2.175 4.687-2.274s.839-.363 1.354-.588c4.671-2.035 12.016-4.664 16.719-5.985 1.766-.496 1.95-1.027.417-1.205-10.674-1.238-26.198-1.799-26.724-.966-.168.267-.197.259-.2-.052-.004-.474-4.748-.491-13.128-.047-8.441.447-9.236.52-9.515.869-.188.237-.339.254-.671.076-.535-.286-3.184-.069-10.127.831-3.299.428-6.371.937-10.625 1.761-2.864.555-3.332.66-6.146 1.367-.974.244-2.099.522-2.5.617-2.099.496-4.83 1.291-8.541 2.489-1.294.417-4.746 1.731-7.396 2.814-5.412 2.211-14.912 7.4-15.374 8.397-.127.275-.371.451-.578.416-.835-.137-6.967 4.667-11.492 9.004-2.811 2.694-3.165 2.897-5.083 2.908-4.114.024-4.286.741-2.986 12.405l.5 4.479c.673 6.035.846 8.726.828 12.916-.025 5.9-.614 13.946-1.228 16.771-.075.344-.052.852.052 1.129.143.385.098.593-.195.885a1.5 1.5 0 0 0-.382.926c0 1.197-2.406 9.941-3.319 12.06-.099.229-.56 1.362-1.025 2.518-4.092 10.162-10.515 18.674-18.622 24.676-5.338 3.952-7.592 5.779-8.748 7.093-1.256 1.427-1.17 1.457-2.635-.932-1.199-1.954-1.22-2.073-.678-3.789 1.211-3.831 1.536-5.931 1.545-9.982.007-3.599-.237-5.733-.906-7.917-.849-2.771-.968-3.084-2.025-5.313-.957-2.019-2-3.66-2.853-4.488-.374-.363-.776-.833-.895-1.045-.301-.539-.88-.043-.88.755 0 .323-.094.645-.209.716s-.208.446-.208.833c0 .388-.094.763-.208.833-.115.071-.212.335-.215.586s-.145.638-.313.861-.306.574-.306.781-.093.377-.208.377-.208.176-.208.391-.385 1.177-.856 2.136a65 65 0 0 0-1.026 2.16c-.093.229-.56 1.401-1.037 2.604-1.056 2.665-.951 2.58-3.584 2.897-1.179.142-2.536.345-3.017.452-1.38.305-2.458.239-2.832-.175-.404-.446-2.44-4.73-2.44-5.134 0-.158-.141-.341-.312-.407s-.313-.291-.313-.501-.088-.471-.195-.58-.241-.713-.297-1.343c-.211-2.361-.853-5-1.216-5-.37 0-2.906 2.319-3.527 3.225-.27.394-.692.824-.937.955-.889.476-2.261 3.348-3.328 6.966-1.463 4.96.131 12.981 3.59 18.06 1.766 2.594 1.392 2.869-1.322.972-4.319-3.02-7.926-5.957-11.101-9.041-3.356-3.258-6.08-6.151-8.021-8.517a58 58 0 0 0-1.042-1.245 76 76 0 0 1-1.432-1.792c-.672-.859-1.615-1.937-2.094-2.396s-1.116-1.349-1.415-1.979c-.3-.63-1.011-1.649-1.582-2.264-.57-.615-1.164-1.365-1.319-1.667a6 6 0 0 0-.752-1.067c-.257-.285-.468-.592-.468-.681 0-.179-1.06-1.861-1.277-2.029-.075-.058-.259-.526-.41-1.042s-.583-1.425-.961-2.021c-.377-.596-.686-1.127-.686-1.179 0-.231-2.19-3.832-2.615-4.3-.261-.286-.579-.918-.707-1.403-.129-.486-1.027-2.536-1.997-4.556s-1.764-3.755-1.764-3.857c0-.101-.089-.184-.199-.184-.175 0-.477-.567-1.056-1.979-.094-.229-.162-.575-.152-.769.015-.296-.381-1.369-1.714-4.648-1.074-2.64-1.097-2.705-2.926-8.021-.741-2.153-1.049-2.805-1.315-2.783-.404.034-.402.041-.159-.599.136-.358-.006-1.259-.519-3.295-.389-1.541-.765-3.271-.836-3.843-.323-2.588-.922-2.454-2.369.528-1.71 3.527-1.116 3.684-6.806-1.793-5.965-5.741-7.037-6.74-10.386-9.673a2670 2670 0 0 1-3.542-3.105c-.344-.302-1.703-1.39-3.021-2.417s-2.443-1.921-2.5-1.987c-.255-.29-7.435-5.277-9.752-6.773-3.675-2.372-3.641-2.353-4.142-2.369-.252-.009-.592-.207-.756-.442-.271-.387-2.077-1.657-2.356-1.657-.065 0-.366-.174-.67-.387-.532-.373-1.367-.849-4.511-2.571-2.223-1.217-10.503-5.365-11.563-5.792a73 73 0 0 1-2.708-1.206 94 94 0 0 0-3.959-1.706 217 217 0 0 1-2.812-1.144c-.862-.368-5.291-2.041-7.188-2.714a124 124 0 0 1-1.979-.716 36 36 0 0 0-1.146-.403l-8.227-2.757c-5.582-1.871-7.698-2.494-8.281-2.439-.596.057-.784-.001-.784-.243-.001-.229-1.148-.688-4.115-1.644-2.262-.73-4.301-1.4-4.53-1.49-.608-.238-3.001-1.024-7.604-2.499-2.235-.715-5.703-1.84-7.709-2.5-5.405-1.777-8.926-2.853-11.145-3.407-.688-.171-1.688-.422-2.224-.557-.535-.135-1.064-.189-1.175-.12-.112.069-.611-.023-1.111-.205C11.676 5.93.998 5.445.424 6.138m359.784 26.675c0 .171-.184.312-.41.312-.279 0-.372-.1-.29-.312.066-.172.251-.313.41-.313.16 0 .29.141.29.313M80.712 72.634c.072.188.086.387.031.442-.194.194-.743-.15-.743-.465 0-.427.546-.409.712.023m239.56.086c.083.32.024.412-.234.363-.436-.084-.598-.791-.182-.791.167 0 .354.193.416.428m-39.927 39.893c.068.177.078.367.023.422-.186.185-.785-.16-.785-.453 0-.394.608-.369.762.031" style="" stroke-width="1" stroke="#000000"></path></svg>