<?xml version="1.0" encoding="UTF-8"?>
<svg xmlns="http://www.w3.org/2000/svg" xmlns:xlink="http://www.w3.org/1999/xlink" id="svg" version="1.1" viewBox="0 0 400 220"><g id="svgg"><path id="path0" d="M160.729 14.688 C 158.358 14.938,157.485 15.082,155.091 15.624 C 150.845 16.584,148.703 17.723,145.914 20.503 C 143.28 23.127,140.729 27.357,139.179 31.667 C 139.034 32.068,138.839 32.583,138.744 32.813 C 138.362 33.739,136.698 39.228,136.249 41.042 C 133.981 50.206,133.087 58.502,133.081 70.454 C 133.07 93.413,136.149 104.745,143.729 109.642 C 147.984 112.39,153.363 113.821,163.958 115.024 C 167.1 115.381,177.783 115.383,180.313 115.029 C 193.032 113.243,195.174 111.749,199.086 101.928 C 199.706 100.372,200.086 100.07,200.397 100.885 C 200.496 101.143,200.898 102.057,201.291 102.917 C 201.684 103.776,202.134 104.807,202.292 105.208 C 202.45 105.609,202.795 106.287,203.06 106.715 C 203.325 107.142,203.542 107.539,203.542 107.596 C 203.542 109.306,207.505 112.332,211.146 113.401 C 215.886 114.794,220.311 115.3,227.708 115.297 C 234.218 115.294,238.524 114.911,244.896 113.768 C 257.197 111.561,262.765 106.042,265.09 93.75 C 267.854 79.132,267.433 56.495,264.143 42.917 C 263.907 41.943,263.667 40.911,263.609 40.625 C 263.414 39.651,261.437 33.445,260.69 31.458 C 257.345 22.567,251.933 16.965,245.521 15.758 C 245.177 15.694,244.24 15.492,243.438 15.31 C 239.561 14.432,234.198 14.306,230.729 15.013 C 229.124 15.34,227.209 15.885,226.99 16.077 C 226.881 16.172,226.658 16.25,226.494 16.25 C 226.042 16.25,223.224 17.659,221.354 18.82 C 217.569 21.171,213.541 25.15,210.104 29.932 C 207.514 33.536,203.75 40.699,201.475 46.354 C 200.375 49.09,199.583 50.344,199.583 49.352 C 199.583 49.12,198.343 45.924,197.612 44.271 C 197.46 43.927,197.117 43.13,196.85 42.5 C 196.252 41.086,193.655 36.009,192.99 34.952 C 192.72 34.525,192.5 34.128,192.5 34.071 C 192.5 33.895,191.046 31.658,189.718 29.792 C 187.263 26.34,183.688 22.466,181.354 20.727 C 180.896 20.386,180.474 20.056,180.417 19.993 C 179.082 18.541,172.667 15.681,169.271 15.025 C 168.172 14.813,163.612 14.333,163.333 14.401 C 163.276 14.414,162.104 14.544,160.729 14.688 M69.799 29.295 C 68.944 29.581,68.135 29.905,68.002 30.016 C 67.853 30.139,67.567 30.145,67.265 30.031 C 65.342 29.304,59.821 29.375,55.521 30.181 C 52.666 30.716,49.95 32.123,48.308 33.917 C 45.245 37.264,45.13 37.48,43.138 43.542 C 40.06 52.908,38.958 60.862,38.959 73.694 C 38.96 82.033,40.06 95.111,41.259 101.042 C 41.531 102.383,42.073 104.954,42.303 105.99 C 42.411 106.477,42.587 107.273,42.694 107.76 C 43.37 110.836,45.102 117.724,46.244 121.875 C 46.478 122.726,47.441 125.98,47.815 127.188 C 47.957 127.646,48.287 128.724,48.547 129.583 C 49.22 131.803,51.384 138.385,51.989 140.052 C 52.27 140.826,52.742 142.138,53.038 142.969 C 53.333 143.799,53.651 144.667,53.743 144.896 C 53.836 145.125,54.396 146.578,54.989 148.125 C 56.326 151.613,59.014 158.197,59.817 159.95 C 60.147 160.671,60.417 161.298,60.417 161.344 C 60.417 161.39,60.733 162.114,61.119 162.954 C 61.505 163.793,62.057 164.995,62.347 165.625 C 64.071 169.381,64.622 170.526,66.653 174.583 C 69.706 180.682,71.548 184.129,72.854 186.188 C 73.232 186.784,73.542 187.32,73.542 187.38 C 73.542 187.802,79.386 196.442,81.867 199.688 C 83.391 201.682,86.328 205.321,86.658 205.625 C 86.72 205.682,87.417 206.479,88.207 207.396 C 91.523 211.243,98.526 217.872,98.978 217.592 C 99.318 217.382,99.075 214.155,98.53 211.641 C 97.91 208.78,97.682 207.703,97.5 206.771 C 97.32 205.847,97.052 204.588,96.569 202.396 C 96.393 201.594,96.1 200.234,95.918 199.375 C 95.737 198.516,95.408 196.969,95.188 195.938 C 94.505 192.731,93.711 188.896,93.529 187.917 C 93.433 187.401,93.206 186.323,93.025 185.521 C 92.844 184.719,92.613 183.594,92.511 183.021 C 92.342 182.07,91.782 179.19,91.256 176.563 C 90.727 173.927,90.151 170.863,89.784 168.75 C 89.655 168.005,89.458 166.927,89.346 166.354 C 89.233 165.781,89.047 164.609,88.931 163.75 C 88.698 162.021,88.524 160.798,88.028 157.396 C 87.844 156.135,87.611 154.354,87.51 153.438 C 87.408 152.521,87.133 150.083,86.897 148.021 C 86.661 145.958,86.373 143.286,86.257 142.083 C 86.141 140.88,85.951 138.911,85.835 137.708 C 84.497 123.814,84.195 94.7,85.217 78.021 C 85.605 71.681,86.155 63.563,86.472 59.479 C 87.495 46.322,86.605 39.717,83.116 34.572 C 80.132 30.171,74.207 27.823,69.799 29.295 M324.896 29.158 C 315.826 31.423,311.965 40.198,313.203 55.729 C 315.993 90.725,316.165 118.044,313.744 141.667 C 313.632 142.755,313.399 145.052,313.224 146.771 C 313.05 148.49,312.82 150.552,312.714 151.354 C 312.608 152.156,312.417 153.656,312.289 154.688 C 311.714 159.316,310.605 166.527,309.788 170.938 C 309.347 173.32,308.891 175.648,308.113 179.479 C 307.881 180.625,307.605 182.078,307.499 182.708 C 307.394 183.339,307.161 184.51,306.981 185.313 C 306.801 186.115,306.473 187.661,306.253 188.75 C 306.033 189.839,305.469 192.557,304.999 194.792 C 304.529 197.026,304.058 199.276,303.951 199.792 C 303.845 200.307,303.511 201.854,303.211 203.229 C 302.91 204.604,302.583 206.151,302.484 206.667 C 302.386 207.182,302.158 208.26,301.978 209.063 C 300.775 214.427,300.44 217.708,301.095 217.708 C 301.975 217.708,311.311 208.205,315.208 203.341 C 315.609 202.841,316.031 202.33,316.146 202.205 C 316.26 202.081,316.63 201.604,316.968 201.146 C 317.306 200.688,317.641 200.266,317.714 200.208 C 318.133 199.876,324.053 191.331,325.002 189.688 C 325.201 189.344,326.02 187.984,326.822 186.667 C 328.82 183.387,329.789 181.586,332.874 175.417 C 335.804 169.556,338.958 162.919,338.958 162.614 C 338.958 162.568,339.286 161.82,339.688 160.952 C 340.089 160.084,340.417 159.326,340.417 159.269 C 340.417 159.212,340.651 158.679,340.938 158.085 C 341.224 157.491,341.458 156.932,341.458 156.842 C 341.458 156.752,341.702 156.136,342.001 155.474 C 342.797 153.707,342.829 153.631,343.75 151.25 C 344.216 150.047,344.679 148.875,344.78 148.646 C 344.88 148.417,345.306 147.292,345.724 146.146 C 346.143 145,346.582 143.828,346.7 143.542 C 346.818 143.255,347.052 142.599,347.219 142.083 C 347.387 141.568,347.579 141.005,347.645 140.833 C 348.044 139.806,349.852 134.584,349.99 134.063 C 350.08 133.719,350.344 132.875,350.575 132.188 C 350.949 131.074,351.405 129.598,352.956 124.479 C 353.199 123.677,353.472 122.74,353.562 122.396 C 353.653 122.052,353.816 121.443,353.925 121.042 C 354.572 118.658,355.917 113.52,356.079 112.813 C 356.183 112.354,356.35 111.651,356.449 111.25 C 356.898 109.431,357.348 107.415,358.099 103.854 C 358.341 102.708,358.631 101.349,358.744 100.833 C 358.953 99.879,359.379 96.815,359.773 93.438 C 359.98 91.664,360.124 90.146,360.642 84.271 C 361.598 73.419,360.729 57.65,358.764 50.208 C 357.873 46.832,356.668 42.793,356.247 41.771 C 355.837 40.775,355 38.413,355 38.251 C 355 37.227,350.58 32.617,348.646 31.624 C 344.852 29.677,336.492 28.821,332.847 30.007 C 332.399 30.153,332.073 30.106,331.493 29.813 C 329.362 28.738,327.369 28.54,324.896 29.158 M112.624 31.665 C 109.07 32.307,105.348 35.924,102.745 41.266 C 102.267 42.248,101.875 43.116,101.875 43.195 C 101.875 43.274,101.698 43.735,101.482 44.221 C 100.245 47.003,98.917 50.793,97.303 56.146 C 93.765 67.879,93.167 82.248,95.769 93.021 C 96.225 94.911,98.324 101.973,98.741 103.021 C 98.832 103.25,99.249 104.337,99.668 105.436 C 101.87 111.219,102.89 111.257,104.788 105.625 C 107.638 97.168,107.898 97.047,114.627 101.064 C 115.806 101.768,117.054 102.506,117.4 102.704 C 117.746 102.902,119.067 103.687,120.335 104.449 C 124.949 107.219,125.541 106.023,126.044 92.917 C 126.289 86.521,126.547 81.711,126.986 75.313 C 127.616 66.149,127.898 62.867,128.336 59.62 C 128.898 55.451,128.566 49.414,127.509 44.583 C 125.621 35.951,119.293 30.46,112.624 31.665 M283.438 31.671 C 277.481 32.867,273.501 38.344,271.783 47.708 C 271.405 49.768,271.33 57.558,271.664 60.037 C 272.396 65.469,273.491 81.502,273.953 93.57 C 274.394 105.094,275.196 107.126,278.51 105.121 C 291.549 97.231,292.239 97.061,293.657 101.39 C 293.838 101.943,294.214 103.029,294.493 103.802 C 294.772 104.576,295.243 105.888,295.541 106.719 C 296.583 109.629,297.132 110.257,298.096 109.649 C 298.965 109.101,301.274 103.395,302.803 98.021 C 302.998 97.333,303.234 96.536,303.326 96.25 C 306.319 86.942,306.614 73.356,304.068 61.979 C 303.889 61.177,303.652 60.099,303.543 59.583 C 303.433 59.068,303.193 58.13,303.01 57.5 C 302.826 56.87,302.601 56.026,302.51 55.625 C 302.332 54.835,301.521 52.237,301.243 51.563 C 301.149 51.333,300.871 50.536,300.625 49.792 C 296.146 36.205,290.501 30.254,283.438 31.671 M13.438 61.147 C 7.476 62.678,3.392 67.231,2.32 73.542 C 0.652 83.359,0.644 92.767,2.294 102.604 C 2.409 103.292,2.65 104.792,2.829 105.938 C 3.008 107.083,3.233 108.396,3.331 108.854 C 3.428 109.313,3.62 110.25,3.758 110.938 C 4.295 113.615,5.288 117.467,6.067 119.896 C 6.288 120.583,6.614 121.615,6.793 122.188 C 6.972 122.76,7.2 123.417,7.3 123.646 C 7.399 123.875,7.757 124.906,8.096 125.938 C 8.663 127.667,9.335 129.501,9.774 130.521 C 9.873 130.75,10.449 132.156,11.053 133.646 C 11.658 135.135,12.406 136.917,12.715 137.604 C 13.025 138.292,13.488 139.323,13.745 139.896 C 14.358 141.263,17.914 148.377,18.119 148.646 C 18.207 148.76,18.587 149.417,18.965 150.104 C 20.402 152.72,20.721 153.269,21.598 154.638 C 22.094 155.412,22.5 156.094,22.5 156.152 C 22.5 156.329,26.002 161.416,27.36 163.213 C 33.407 171.211,40.008 177.446,47.271 182.022 C 49.918 183.69,49.879 183.856,48.129 178.438 C 47.87 177.635,47.585 176.698,47.494 176.354 C 47.404 176.01,47.081 174.932,46.776 173.958 C 46.471 172.984,46.002 171.391,45.734 170.417 C 45.466 169.443,45.048 167.943,44.805 167.083 C 44.253 165.128,42.749 159.343,42.504 158.229 C 42.403 157.771,42.169 156.74,41.983 155.938 C 40.991 151.653,39.417 141.653,38.227 132.083 C 38.049 130.651,37.816 128.776,37.708 127.917 C 37.049 122.646,36.579 117.966,35.731 108.229 C 35.561 106.281,35.33 103.656,35.217 102.396 C 34.936 99.255,34.652 95.999,34.271 91.563 C 33.948 87.789,33.82 86.757,33.225 83.125 C 30.768 68.115,22.418 58.841,13.438 61.147 M381.25 61.143 C 376.294 62.299,372.214 66.6,369.292 73.75 C 369.081 74.266,368.832 74.875,368.739 75.104 C 367.982 76.968,367.172 80.277,366.674 83.542 C 366.543 84.401,366.351 85.573,366.246 86.146 C 366.142 86.719,366.003 87.844,365.936 88.646 C 365.87 89.448,365.678 91.651,365.51 93.542 C 365.341 95.432,365.114 98.057,365.005 99.375 C 364.896 100.693,364.66 103.365,364.481 105.313 C 364.302 107.26,364.065 109.932,363.954 111.25 C 363.507 116.583,363.006 121.777,362.714 124.115 C 362.596 125.06,362.406 126.607,362.29 127.552 C 361.64 132.879,361.224 136.026,360.603 140.313 C 360.371 141.917,360.098 143.839,359.997 144.583 C 359.562 147.789,358.901 151.574,358.196 154.896 C 357.799 156.768,356.095 163.776,355.74 165 C 355.494 165.846,355.329 166.431,354.769 168.438 C 354.515 169.347,354.049 171.006,353.744 172.083 C 353.598 172.599,353.271 173.677,353.016 174.479 C 352.612 175.75,351.939 177.96,351.206 180.417 C 351.086 180.818,350.907 181.361,350.807 181.624 C 350.575 182.235,350.572 183.125,350.802 183.125 C 351.187 183.125,358.042 178.528,358.542 177.935 C 358.599 177.867,359.302 177.285,360.104 176.642 C 361.827 175.262,367.419 169.641,368.993 167.708 C 369.6 166.964,370.154 166.307,370.224 166.25 C 370.969 165.642,375.696 158.982,377.913 155.417 C 380.41 151.401,387.083 138.754,387.083 138.038 C 387.083 137.978,387.323 137.387,387.616 136.725 C 387.909 136.063,388.228 135.333,388.324 135.104 C 388.42 134.875,388.638 134.359,388.808 133.958 C 390.839 129.171,394.568 118.375,395.069 115.833 C 395.126 115.547,395.365 114.516,395.601 113.542 C 395.837 112.568,396.134 111.255,396.261 110.625 C 396.389 109.995,396.572 109.104,396.669 108.646 C 396.942 107.363,397.478 103.919,398.031 99.896 C 399.368 90.181,399.219 82.627,397.501 72.917 C 396.094 64.971,388.483 59.457,381.25 61.143 " stroke="none" fill="#000" fill-rule="evenodd"></path></g></svg>