<?xml version="1.0" encoding="UTF-8"?>
<svg version="1.1" viewBox="0 0 400 220" xmlns="http://www.w3.org/2000/svg" style="display: block; overflow: visible;"><g id="svgg" style=""><path id="path0" d="M4.167 12.09 C 3.422 12.174,2.18 12.254,1.406 12.267 C -0.051 12.293,-0.571 12.716,0.469 13.03 C 0.727 13.108,1.219 13.289,1.563 13.433 C 1.906 13.577,2.844 13.951,3.646 14.263 C 5.31 14.912,5.234 14.88,8.021 16.114 C 10.122 17.045,14.429 19.213,16.354 20.309 C 16.927 20.635,17.718 21.082,18.113 21.303 C 20.192 22.467,27.107 27.027,27.5 27.494 C 27.557 27.562,27.999 27.903,28.482 28.252 C 29.927 29.297,32.051 31.191,34.455 33.58 C 35.702 34.819,36.85 35.833,37.007 35.833 C 37.164 35.833,37.292 36.009,37.292 36.224 C 37.292 36.438,37.817 37.254,38.458 38.037 C 39.671 39.516,42.5 43.43,42.5 43.629 C 42.5 43.691,42.813 44.236,43.195 44.84 C 45.932 49.158,47.917 55.577,47.917 60.105 C 47.917 68.296,43.835 76.496,36.417 83.209 C 34.348 85.08,34.356 85.044,35.98 85.406 C 38.871 86.05,40.597 86.492,42.604 87.101 C 43.406 87.344,44.344 87.618,44.688 87.708 C 47.307 88.4,52.974 90.709,56.724 92.613 C 57.73 93.124,58.785 93.542,59.068 93.542 C 59.352 93.542,59.583 93.66,59.583 93.805 C 59.583 93.951,60.122 94.389,60.781 94.78 C 62.388 95.732,66.561 98.469,66.909 98.799 C 67.062 98.944,67.563 99.341,68.021 99.682 C 69.794 101.001,74.17 105.226,76.009 107.396 C 82.66 115.243,85.859 126.82,83.724 135.313 C 83.292 137.03,82.889 138.451,82.718 138.854 C 82.621 139.083,82.424 139.599,82.28 140 C 81.776 141.403,80.579 143.66,79.438 145.362 C 77.731 147.906,77.689 147.877,82.5 147.385 C 84.161 147.216,85.615 147.085,85.729 147.094 C 85.844 147.104,88.234 147.188,91.042 147.281 C 96.601 147.464,98.852 147.609,101.25 147.937 C 104.226 148.344,106.982 148.778,107.708 148.952 C 108.109 149.049,109.141 149.287,110 149.482 C 110.859 149.677,111.844 149.92,112.188 150.022 C 129.267 155.067,136.752 163.68,132.718 173.646 C 132.563 174.028,131.003 177.345,130.593 178.163 C 130.175 178.996,131.641 179.444,133.11 178.932 C 133.607 178.759,133.842 178.759,134.016 178.932 C 134.145 179.061,134.468 179.167,134.734 179.167 C 136.525 179.167,139.303 181.526,140.865 184.375 C 144.514 191.031,144.755 200.798,141.548 212.014 C 141.14 213.441,141.824 213.053,143.099 211.136 C 143.823 210.047,144.526 209.041,144.662 208.901 C 144.798 208.761,145.368 208.036,145.929 207.292 C 150.729 200.917,157.417 196.331,165.417 193.927 C 167.843 193.198,171.765 193.632,174.478 194.928 C 176.407 195.85,176.43 195.846,178.176 194.21 C 180.39 192.137,181.665 190.978,182.604 190.184 C 183.063 189.797,183.484 189.429,183.542 189.367 C 183.791 189.095,187.343 186.204,189 184.924 C 190.156 184.031,190.773 183.419,190.703 183.235 C 190.626 183.035,190.712 182.978,190.985 183.05 C 191.238 183.116,192.149 182.642,193.553 181.712 C 198.004 178.767,204.012 175.648,208.921 173.736 C 209.801 173.393,210.708 173.025,210.938 172.919 C 212.152 172.354,218.886 170.283,221.25 169.748 C 221.766 169.631,222.313 169.434,222.466 169.311 C 222.619 169.187,223.181 169.063,223.716 169.034 C 224.635 168.985,225.254 168.907,229.271 168.336 C 233.332 167.759,242.2 168.084,246.667 168.974 C 248.735 169.387,250.718 169.83,251.354 170.022 C 251.698 170.126,252.776 170.451,253.75 170.745 C 254.724 171.038,255.708 171.359,255.938 171.458 C 258.279 172.466,259.375 172.672,259.375 172.106 C 259.375 171.889,259.516 171.657,259.688 171.591 C 259.859 171.525,260 171.311,260 171.115 C 260 170.919,260.091 170.471,260.203 170.119 C 260.315 169.767,260.752 168.354,261.175 166.979 C 263.29 160.104,267.001 152.631,270.32 148.561 C 273.09 145.165,276.932 141.266,279.792 138.949 C 280.422 138.439,280.984 137.968,281.042 137.903 C 281.234 137.686,285.573 134.611,286.744 133.862 C 288.482 132.751,289.813 132.012,292.963 130.413 C 295.036 129.36,295.79 128.879,295.706 128.661 C 295.614 128.422,295.711 128.393,296.181 128.521 C 296.505 128.609,296.911 128.608,297.083 128.517 C 298.688 127.676,304.456 125.749,307.5 125.037 C 309.854 124.487,311.247 124.194,312.5 123.985 C 313.245 123.861,314.417 123.665,315.104 123.549 C 321.051 122.549,331.318 122.508,338.906 123.453 C 340.21 123.616,340.269 123.429,339.567 121.354 C 338.881 119.33,337.903 115.194,337.251 111.563 C 336.531 107.549,336.972 99.264,338.153 94.638 C 338.481 93.35,338.75 92.066,338.75 91.784 C 338.75 91.502,338.872 91.196,339.021 91.104 C 339.171 91.012,339.465 90.469,339.676 89.896 C 342.532 82.123,348.828 74.179,356.432 68.757 C 360.208 66.064,368.128 61.667,369.203 61.667 C 369.366 61.667,369.589 61.59,369.698 61.496 C 370.061 61.183,375.263 59.216,376.979 58.743 C 377.323 58.648,378.12 58.418,378.75 58.231 C 379.38 58.044,380.646 57.701,381.562 57.468 C 382.478 57.236,383.292 56.942,383.371 56.814 C 383.45 56.686,383.966 56.57,384.518 56.555 C 385.069 56.539,385.99 56.43,386.563 56.31 C 389.59 55.681,394.147 54.958,397.441 54.585 C 400.795 54.204,400.782 54.108,397.237 52.967 C 393.567 51.786,388.614 50.241,387.708 49.995 C 387.307 49.886,386.464 49.649,385.833 49.469 C 385.203 49.289,384.336 49.054,383.906 48.946 C 383.477 48.838,382.773 48.66,382.344 48.549 C 381.914 48.439,380.813 48.198,379.896 48.014 C 378.979 47.829,377.75 47.58,377.165 47.459 C 376.579 47.338,375.736 47.284,375.29 47.34 C 374.747 47.407,374.224 47.313,373.706 47.054 C 373.281 46.841,372.724 46.667,372.469 46.667 C 372.213 46.667,371.483 46.576,370.846 46.465 C 364.146 45.296,349.15 44.014,348.227 44.531 C 347.938 44.692,347.761 44.666,347.521 44.425 C 346.942 43.847,332.238 44.223,324.271 45.02 C 321.413 45.306,317.237 45.811,315.729 46.053 C 315.042 46.163,313.542 46.4,312.396 46.579 C 311.25 46.758,309.938 46.984,309.479 47.081 C 309.021 47.178,308.083 47.364,307.396 47.494 C 306.708 47.624,305.583 47.855,304.896 48.007 C 304.208 48.16,303.083 48.402,302.396 48.547 C 300.692 48.905,298.568 49.486,297.813 49.801 C 297.469 49.944,296.831 50.085,296.394 50.115 C 295.104 50.204,288.148 52.692,284.375 54.415 C 282.396 55.318,276.714 58.188,275.625 58.834 C 275.109 59.14,274.385 59.528,274.015 59.696 C 272.869 60.217,272.769 60.578,272.633 64.688 C 272.478 69.377,271.991 72.144,270.472 76.979 C 269.938 78.68,269.901 78.787,269.271 80.417 C 267.847 84.101,265.049 89.728,263.185 92.654 C 262.803 93.254,262.434 94.027,262.365 94.372 C 262.296 94.718,262.121 95,261.977 95 C 261.833 95,261.549 95.258,261.347 95.573 C 260.836 96.371,257.453 101.123,257.306 101.25 C 257.239 101.307,256.909 101.729,256.572 102.188 C 255.818 103.213,253.964 105.443,252.934 106.563 C 252.512 107.021,251.671 108.052,251.064 108.854 C 249.696 110.664,244.498 115.833,244.047 115.833 C 243.796 115.833,241.155 117.804,240.417 118.542 C 240.359 118.599,239.844 119.013,239.271 119.461 C 238.698 119.91,237.895 120.613,237.487 121.024 C 236.697 121.819,235.511 122.759,235.128 122.894 C 235 122.939,234.647 123.15,234.343 123.363 C 234.039 123.576,233.664 123.751,233.51 123.753 C 233.355 123.755,231.823 124.602,230.104 125.636 C 224.889 128.773,217.57 132.184,211.354 134.373 C 205.54 136.42,201.716 136.658,197.427 135.238 C 195.435 134.578,195.418 134.639,198.125 132.758 C 199.744 131.633,203.957 126.389,203.959 125.496 C 203.96 125.281,204.147 124.797,204.376 124.422 C 204.605 124.047,204.792 123.602,204.792 123.432 C 204.792 123.263,204.875 123.125,204.977 123.125 C 205.08 123.125,205.222 122.891,205.294 122.604 C 205.366 122.318,205.517 122.083,205.629 122.083 C 205.741 122.083,205.833 121.854,205.833 121.575 C 205.833 121.295,205.927 121.008,206.042 120.938 C 206.156 120.867,206.25 120.633,206.25 120.419 C 206.25 120.205,206.391 119.889,206.562 119.717 C 206.734 119.545,206.875 119.169,206.875 118.881 C 206.875 118.593,206.969 118.3,207.083 118.229 C 207.198 118.158,207.292 117.883,207.292 117.617 C 207.292 117.352,207.432 117.018,207.604 116.875 C 207.778 116.73,207.917 116.276,207.917 115.849 C 207.917 115.428,208.003 114.994,208.107 114.885 C 208.212 114.777,208.349 114.125,208.412 113.438 C 208.474 112.75,208.621 111.484,208.738 110.625 C 209.301 106.491,209.192 101.424,208.537 101.298 C 208.357 101.264,207.865 101.703,207.397 102.317 C 206.944 102.911,206.475 103.5,206.354 103.625 C 205.604 104.41,204.167 106.433,204.167 106.706 C 204.167 106.885,203.78 107.442,203.306 107.943 C 202.833 108.444,202.107 109.276,201.692 109.791 C 200.189 111.659,197.19 114.87,193.873 118.163 C 190.988 121.028,190.515 121.279,189.778 120.342 C 189.45 119.926,188.746 119.518,186.641 118.523 C 186.028 118.233,179.114 118.225,178.586 118.513 C 177.552 119.077,176.436 118.744,175.895 117.708 C 175.625 117.193,175.267 116.667,175.098 116.54 C 174.93 116.412,174.792 116.201,174.792 116.071 C 174.792 115.94,174.698 115.833,174.583 115.833 C 174.469 115.833,174.375 115.599,174.375 115.313 C 174.375 115.026,174.299 114.792,174.207 114.792 C 173.997 114.792,173.333 113.315,173.333 112.847 C 173.333 112.656,173.254 112.5,173.158 112.5 C 172.961 112.5,172.5 111.099,172.5 110.501 C 172.5 110.172,171.864 108.266,171.255 106.771 C 171.162 106.542,170.921 105.885,170.719 105.313 C 170.517 104.74,170.226 104.196,170.072 104.104 C 169.918 104.013,169.792 103.62,169.792 103.231 C 169.792 102.843,169.698 102.467,169.583 102.396 C 169.469 102.325,169.372 101.968,169.368 101.602 C 169.364 101.237,169.226 100.703,169.063 100.417 C 168.899 100.13,168.761 99.641,168.757 99.329 C 168.752 98.913,168.667 98.795,168.438 98.883 C 168.266 98.949,168.125 99.18,168.125 99.397 C 168.125 99.614,168.031 99.792,167.917 99.792 C 167.802 99.792,167.708 99.916,167.708 100.068 C 167.708 100.22,167.463 100.571,167.162 100.849 C 166.624 101.347,165 104.543,165 105.104 C 165 105.263,164.917 105.443,164.817 105.505 C 164.716 105.568,164.586 105.831,164.529 106.091 C 164.472 106.35,164.266 107.125,164.072 107.813 C 162.725 112.576,162.373 119.454,163.346 122.012 C 163.454 122.296,163.542 122.758,163.542 123.041 C 163.542 123.324,163.682 123.609,163.854 123.675 C 164.026 123.741,164.167 123.914,164.167 124.061 C 164.167 124.207,164.307 124.596,164.478 124.924 C 164.649 125.252,164.79 125.73,164.79 125.985 C 164.791 126.241,165.045 127.067,165.355 127.822 C 166.122 129.689,165.616 129.818,161.771 128.734 C 161.313 128.605,160.586 128.452,160.156 128.394 C 159.727 128.337,159.375 128.206,159.375 128.103 C 159.375 128.001,159.196 127.917,158.978 127.917 C 158.617 127.917,157.649 127.494,155.625 126.452 C 152.922 125.061,152.292 124.701,152.292 124.548 C 152.292 124.453,152.104 124.375,151.875 124.375 C 151.646 124.375,151.458 124.281,151.458 124.167 C 151.458 124.052,151.375 123.958,151.274 123.958 C 151.038 123.958,148.461 122.255,148.368 122.038 C 148.33 121.948,148.166 121.875,148.003 121.875 C 147.841 121.875,147.708 121.781,147.708 121.667 C 147.708 121.552,147.596 121.458,147.46 121.458 C 147.323 121.458,146.69 120.919,146.053 120.26 C 145.416 119.602,144.286 118.531,143.541 117.882 C 139.077 113.99,131.458 104.708,131.458 103.161 C 131.458 102.868,130.667 102.241,130.46 102.369 C 130.355 102.434,130.312 102.257,130.366 101.976 C 130.429 101.648,130.15 100.814,129.584 99.639 C 129.099 98.634,128.524 97.344,128.304 96.771 C 128.085 96.198,127.819 95.542,127.714 95.313 C 127.487 94.819,126.581 91.916,126.283 90.729 C 126.169 90.271,125.979 89.521,125.863 89.063 C 124.894 85.251,124.519 76,125.186 72.396 C 126.001 67.993,126.466 66.119,127.612 62.604 C 128.555 59.716,129.164 58.232,130.865 54.68 C 132.107 52.086,131.832 51.635,126.042 46.777 C 124.953 45.864,124.016 45.062,123.958 44.995 C 123.738 44.74,119.18 41.272,117.311 39.939 C 116.232 39.169,115.133 38.542,114.863 38.542 C 114.538 38.542,114.375 38.42,114.374 38.177 C 114.372 37.854,110.554 35.266,107.917 33.802 C 107.516 33.579,106.203 32.84,105 32.16 C 102.992 31.026,96.404 27.708,96.159 27.708 C 96.101 27.708,95.512 27.469,94.85 27.176 C 94.188 26.883,93.458 26.564,93.229 26.468 C 93 26.371,92.484 26.15,92.083 25.976 C 88.889 24.589,78.957 21.239,74.271 19.969 C 73.813 19.845,73.203 19.664,72.917 19.566 C 72.242 19.337,69.216 18.529,68.542 18.398 C 68.255 18.343,67.599 18.177,67.083 18.03 C 66.568 17.883,65.63 17.651,65 17.515 C 63.487 17.189,61.336 16.688,60.366 16.436 C 59.937 16.325,59.047 16.198,58.387 16.154 C 57.727 16.109,56.859 15.936,56.458 15.768 C 56.057 15.6,55.307 15.4,54.792 15.324 C 54.276 15.247,53.385 15.096,52.813 14.988 C 46.276 13.76,36.488 12.625,27.813 12.09 C 23.895 11.848,6.303 11.848,4.167 12.09 M40.833 32.708 C 40.833 32.986,40.694 33.125,40.417 33.125 C 40.015 33.125,39.852 32.717,40.139 32.431 C 40.426 32.144,40.833 32.307,40.833 32.708 M80.712 72.634 C 80.784 72.822,80.807 73.012,80.764 73.056 C 80.594 73.225,80 72.857,80 72.582 C 80 72.177,80.552 72.218,80.712 72.634 M320.208 72.702 C 320.208 72.981,320.108 73.074,319.896 72.992 C 319.724 72.926,319.583 72.741,319.583 72.582 C 319.583 72.422,319.724 72.292,319.896 72.292 C 320.068 72.292,320.208 72.476,320.208 72.702 M120.678 112.682 C 120.757 112.982,120.69 113.049,120.39 112.97 C 120.176 112.914,120 112.738,120 112.58 C 120 112.148,120.561 112.233,120.678 112.682 M280.417 112.604 C 280.417 112.778,280.231 112.917,280 112.917 C 279.769 112.917,279.583 112.778,279.583 112.604 C 279.583 112.431,279.769 112.292,280 112.292 C 280.231 112.292,280.417 112.431,280.417 112.604 M240.417 152.396 C 240.417 152.568,240.265 152.708,240.079 152.708 C 239.802 152.708,239.788 152.652,240 152.396 C 240.143 152.224,240.295 152.083,240.338 152.083 C 240.381 152.083,240.417 152.224,240.417 152.396 " stroke="#000000" fill="#000000" fill-rule="evenodd" style="" stroke-width=""></path></g></svg>